<svg xmlns="http://www.w3.org/2000/svg" viewBox="0 0 36 36"><path fill="#FFD983" d="M22.599 19.942c.253-.598.253-3.287.003-3.883 2.447-.782 6.791-2.379 8.834-4.423 1.399-1.4 1.158-3.085.148-4.095-1.562-1.562-3.212.088-3.212.088s1.65-1.65.088-3.212c-1.01-1.01-2.696-1.251-4.095.148-2.041 2.042-3.638 6.379-4.421 8.827-.6-.255-3.294-.257-3.89-.006-.783-2.45-2.379-6.781-4.419-8.821-1.4-1.399-3.085-1.158-4.095-.148-1.561 1.562.089 3.212.089 3.212s-1.65-1.65-3.212-.088c-1.01 1.01-1.251 2.696.148 4.095 2.04 2.039 6.369 3.634 8.819 4.418-.252.597-.251 3.292.003 3.891-2.449.783-6.782 2.379-8.822 4.419-1.399 1.4-1.158 3.085-.148 4.095 1.562 1.562 3.212-.088 3.212-.088s-1.65 1.65-.088 3.212c1.01 1.01 2.696 1.251 4.095-.148 2.042-2.042 3.639-6.38 4.421-8.828.595.25 3.285.249 3.884-.005.782 2.447 2.379 6.791 4.423 8.835 1.4 1.399 3.085 1.158 4.095.148 1.562-1.562-.088-3.212-.088-3.212s1.65 1.65 3.212.088c1.01-1.01 1.251-2.696-.148-4.095-2.044-2.045-6.389-3.643-8.836-4.424z"/><path fill="#FFCC4D" d="M32.667 18S35 18 35 15.791C35 14.363 33.979 13 32 13c-2.892 0-7.097 1.945-9.379 3.122a5.004 5.004 0 0 0-2.739-2.75C21.06 11.088 23 6.889 23 4c0-1.979-1.363-3-2.791-3C18 1 18 3.333 18 3.333S18 1 15.791 1C14.363 1 13 2.021 13 4c0 2.887 1.938 7.083 3.116 9.367a5.01 5.01 0 0 0-2.751 2.747C11.08 14.937 6.886 13 4 13c-1.979 0-3 1.363-3 2.791C1 18 3.333 18 3.333 18S1 18 1 20.209C1 21.637 2.021 23 4 23c2.887 0 7.082-1.938 9.367-3.116a5.008 5.008 0 0 0 2.753 2.742C14.942 24.909 13 29.11 13 32c0 1.979 1.363 3 2.791 3C18 35 18 32.667 18 32.667S18 35 20.209 35C21.637 35 23 33.979 23 32c0-2.892-1.944-7.097-3.122-9.378a5.008 5.008 0 0 0 2.741-2.745C24.9 21.054 29.107 23 32 23c1.979 0 3-1.363 3-2.791C35 18 32.667 18 32.667 18z"/><path fill="#F4900C" d="m29.487 17.645-5-1c-.768-.109-4.916-4.147-4.987-4.645l-1-5c-.087-.53-.91-.538-1 0l-1 5c-.07.496-4.127 4.913-4.645 4.987l-5 1c-.53.087-.538.91 0 1l5 1c.643.092 4.862 3.77 4.987 4.646l1 5c.087.53.91.538 1 0l1-5c.136-.957 3.85-4.875 4.645-4.988l5-1c.53-.087.538-.91 0-1z"/><path fill="#FFAC33" d="m26.647 25.844-2.828-4.243c-.582-.775-.626-6.298-.241-6.811l2.828-4.243c.314-.436-.263-1.024-.707-.707l-4.243 2.828c-.467.351-6.453.511-6.811.242l-4.243-2.828c-.436-.314-1.024.263-.707.707l2.828 4.243c.316.421.656 6.258.241 6.81l-2.828 4.243c-.314.436.263 1.024.707.707l4.243-2.828c.658-.494 6.051-.812 6.811-.241l4.243 2.828c.436.314 1.024-.263.707-.707z"/><circle fill="#E66900" cx="18" cy="18" r="7"/><circle fill="#F4900C" cx="18" cy="18" r="5"/><circle fill="#FFCC4D" cx="20" cy="15" r="1"/><circle fill="#FFCC4D" cx="17" cy="17" r="1"/><circle fill="#FFCC4D" cx="14" cy="20" r="1"/><circle fill="#FFCC4D" cx="14" cy="17" r="1"/><circle fill="#FFCC4D" cx="15" cy="15" r="1"/><circle fill="#FFCC4D" cx="17" cy="14" r="1"/></svg>
